<svg width="24" height="20" viewBox="0 0 24 20" fill="none" xmlns="http://www.w3.org/2000/svg">
<path fill-rule="evenodd" clip-rule="evenodd" d="M3.27273 2.22222C2.67522 2.22222 2.18182 2.72476 2.18182 3.33333V16.6667C2.18182 17.2752 2.67522 17.7778 3.27273 17.7778H20.7273C21.3248 17.7778 21.8182 17.2752 21.8182 16.6667V3.33333C21.8182 2.72476 21.3248 2.22222 20.7273 2.22222H3.27273ZM0 3.33333C0 1.49746 1.47023 0 3.27273 0H20.7273C22.5298 0 24 1.49746 24 3.33333V16.6667C24 18.5025 22.5298 20 20.7273 20H3.27273C1.47023 20 0 18.5025 0 16.6667V3.33333Z" fill="#868686"/>
<path fill-rule="evenodd" clip-rule="evenodd" d="M0.197294 2.47402C0.542798 1.9713 1.22301 1.84905 1.71658 2.20095L12 9.53263L22.2834 2.20095C22.777 1.84905 23.4572 1.9713 23.8027 2.47402C24.1482 2.97674 24.0282 3.66954 23.5346 4.02144L12.6256 11.7991C12.25 12.067 11.75 12.067 11.3744 11.7991L0.465404 4.02144C-0.0281734 3.66954 -0.14821 2.97674 0.197294 2.47402Z" fill="#868686"/>
</svg>
