<svg width="141" height="51" viewBox="0 0 141 51" fill="none" xmlns="http://www.w3.org/2000/svg">
<path d="M58.7179 24.9863C51.5012 24.9863 45.6328 30.7285 45.6328 37.79C45.6328 44.8514 51.5012 50.5936 58.7179 50.5936C65.9346 50.5936 71.803 44.8514 71.803 37.79C71.803 30.7285 65.9346 24.9863 58.7179 24.9863ZM58.7179 45.9309C54.1366 45.9309 50.398 42.2877 50.398 37.79C50.398 33.2922 54.1366 29.649 58.7179 29.649C63.2992 29.649 67.0378 33.2922 67.0378 37.79C67.0378 42.2877 63.2992 45.9309 58.7179 45.9309Z" fill="#AC3AE3"/>
<path d="M87.6476 24.9863C80.4309 24.9863 74.5625 30.7285 74.5625 37.79C74.5625 44.8514 80.4309 50.5936 87.6476 50.5936C94.8643 50.5936 100.733 44.8514 100.733 37.79C100.733 30.7285 94.8643 24.9863 87.6476 24.9863ZM87.6476 45.9309C83.0663 45.9309 79.3277 42.2877 79.3277 37.79C79.3277 33.2922 83.0663 29.649 87.6476 29.649C92.2289 29.649 95.9675 33.2922 95.9675 37.79C95.9675 42.2877 92.2289 45.9309 87.6476 45.9309Z" fill="#AC3AE3"/>
<path d="M42.8726 24.8659C39.6856 24.8659 36.7744 25.9754 34.4914 27.8194V27.1898C34.4914 25.9004 33.4189 24.8509 32.1012 24.8509C30.7835 24.8509 29.7109 25.9004 29.7109 27.1898V48.2543C29.7109 49.5436 30.7835 50.5931 32.1012 50.5931C33.4189 50.5931 34.4914 49.5436 34.4914 48.2543V37.7145C34.4914 33.1868 38.2453 29.5136 42.8726 29.5136C44.1903 29.5136 45.2629 28.4641 45.2629 27.1748C45.2629 25.8854 44.1903 24.8359 42.8726 24.8359V24.8659Z" fill="#AC3AE3"/>
<path d="M130.336 24.8652C127.058 24.8652 124.116 26.3345 122.185 28.6434C120.255 26.3345 117.313 24.8652 114.034 24.8652C111.873 24.8652 109.851 25.5099 108.181 26.6044C107.905 25.5999 106.986 24.8652 105.882 24.8652C104.565 24.8652 103.492 25.9147 103.492 27.2041V48.2686C103.492 49.5579 104.565 50.6074 105.882 50.6074C107.2 50.6074 108.273 49.5579 108.273 48.2686V35.1801C108.273 32.0766 110.862 29.5429 114.034 29.5429C117.205 29.5429 119.795 32.0766 119.795 35.1801V48.2686C119.795 49.5579 120.867 50.6074 122.185 50.6074C123.503 50.6074 124.575 49.5579 124.575 48.2686V35.1801C124.575 32.0766 127.165 29.5429 130.336 29.5429C133.508 29.5429 136.098 32.0766 136.098 35.1801V48.2686C136.098 49.5579 137.17 50.6074 138.488 50.6074C139.806 50.6074 140.878 49.5579 140.878 48.2686V35.1801C140.878 29.4979 136.159 24.8652 130.336 24.8652Z" fill="#AC3AE3"/>
<path d="M24.9936 25.1032C23.8138 24.5184 22.3735 24.9982 21.7913 26.1526L13.1649 43.0342L4.52327 26.1526C3.94103 24.9982 2.50075 24.5334 1.32095 25.1032C0.141152 25.6729 -0.333833 27.0822 0.248407 28.2366L11.0198 49.3011C11.4182 50.0957 12.2456 50.5905 13.1496 50.5905C14.0536 50.5905 14.881 50.0957 15.2794 49.3011L26.0508 28.2366C26.633 27.0822 26.1581 25.6729 24.9783 25.1032H24.9936Z" fill="#AC3AE3"/>
<path d="M48.0234 23.591C49.3411 23.591 50.4136 22.5415 50.4136 21.2521C50.4136 12.4215 57.7529 5.24012 66.7776 5.24012C72.5847 5.24012 78.0087 8.29859 80.9352 13.2161C80.9505 13.2611 80.9812 13.2911 81.0118 13.3211C81.0578 13.3961 81.1191 13.471 81.165 13.531C81.211 13.576 81.257 13.6359 81.3029 13.6809C81.3642 13.7409 81.4255 13.8009 81.5021 13.8608C81.5481 13.9058 81.6094 13.9358 81.6553 13.9808C81.732 14.0257 81.8086 14.0707 81.8852 14.1157C81.9465 14.1457 82.0078 14.1757 82.0537 14.1907C82.1303 14.2206 82.2223 14.2506 82.2989 14.2806C82.3602 14.2956 82.4215 14.3106 82.4827 14.3256C82.5747 14.3406 82.6513 14.3556 82.7432 14.3706C82.8045 14.3706 82.8811 14.3706 82.9424 14.3706C83.0343 14.3706 83.1109 14.3706 83.2029 14.3706C83.2795 14.3706 83.3408 14.3556 83.4174 14.3406C83.494 14.3406 83.5859 14.3106 83.6625 14.2806C83.7391 14.2656 83.8004 14.2356 83.877 14.2057C83.923 14.1907 83.969 14.1757 84.0149 14.1607C85.1028 13.6509 86.2673 13.3961 87.4931 13.3961C91.9365 13.3961 95.5525 16.9343 95.5525 21.2821C95.5525 22.5715 96.625 23.621 97.9427 23.621C99.2604 23.621 100.333 22.5715 100.333 21.2821C100.333 14.3556 94.5719 8.73338 87.5084 8.73338C86.2979 8.73338 85.1028 8.91329 83.969 9.24312C80.0159 3.87579 73.6112 0.607422 66.7929 0.607422C55.1328 0.607422 45.6484 9.8878 45.6484 21.2971C45.6484 22.5865 46.721 23.636 48.0387 23.636L48.0234 23.591Z" fill="#AC3AE3"/>
</svg>
