<svg width="22" height="23" viewBox="0 0 22 23" fill="none" xmlns="http://www.w3.org/2000/svg">
<path d="M21.0955 18.4362C20.4132 17.8279 19.8158 17.1306 19.3195 16.3629C18.7776 15.3034 18.4528 14.1462 18.3642 12.9595V9.46397C18.3689 7.59992 17.6927 5.7983 16.4628 4.39763C15.2328 2.99696 13.5336 2.09365 11.6846 1.85742V0.944629C11.6846 0.694097 11.5851 0.453828 11.4079 0.276675C11.2308 0.0995232 10.9905 0 10.74 0C10.4894 0 10.2492 0.0995232 10.072 0.276675C9.89487 0.453828 9.79535 0.694097 9.79535 0.944629V1.87157C7.96288 2.12483 6.28428 3.03361 5.07046 4.42957C3.85663 5.82553 3.18983 7.61409 3.19356 9.46397V12.9595C3.10494 14.1462 2.78017 15.3034 2.23832 16.3629C1.75071 17.1288 1.16293 17.8261 0.49058 18.4362C0.415102 18.5025 0.354611 18.5841 0.313129 18.6756C0.271648 18.7671 0.250127 18.8664 0.25 18.9669V19.9292C0.25 20.1168 0.324549 20.2968 0.457247 20.4295C0.589946 20.5622 0.769923 20.6368 0.957587 20.6368H20.6285C20.8162 20.6368 20.9961 20.5622 21.1288 20.4295C21.2615 20.2968 21.3361 20.1168 21.3361 19.9292V18.9669C21.336 18.8664 21.3144 18.7671 21.273 18.6756C21.2315 18.5841 21.171 18.5025 21.0955 18.4362ZM1.72178 19.2216C2.38013 18.5856 2.95977 17.8729 3.44829 17.0988C4.13084 15.8192 4.52908 14.4072 4.61581 12.9595V9.46397C4.58775 8.63471 4.72685 7.80828 5.02483 7.03389C5.32281 6.2595 5.77357 5.55299 6.35028 4.95644C6.92699 4.35988 7.61785 3.88548 8.38172 3.56148C9.14559 3.23748 9.96684 3.07051 10.7966 3.07051C11.6263 3.07051 12.4476 3.23748 13.2115 3.56148C13.9753 3.88548 14.6662 4.35988 15.2429 4.95644C15.8196 5.55299 16.2704 6.2595 16.5683 7.03389C16.8663 7.80828 17.0054 8.63471 16.9774 9.46397V12.9595C17.0641 14.4072 17.4623 15.8192 18.1449 17.0988C18.6334 17.8729 19.213 18.5856 19.8714 19.2216H1.72178Z" fill="#AB39E2"/>
<path d="M10.826 23C11.2718 22.9898 11.6995 22.8222 12.0336 22.5269C12.3677 22.2317 12.5866 21.8278 12.6516 21.3867H8.92969C8.99654 21.8398 9.22569 22.2532 9.57451 22.5499C9.92334 22.8467 10.3681 23.0066 10.826 23Z" fill="#AB39E2"/>
</svg>
