<svg width="24" height="21" viewBox="0 0 24 21" fill="none" xmlns="http://www.w3.org/2000/svg">
<path d="M22.039 1.69531V18.6484H1.69531V1.69531H22.039ZM22.039 0H1.69531C1.24569 0 0.814478 0.178613 0.496545 0.496545C0.178613 0.814478 0 1.24569 0 1.69531V18.6484C0 19.0981 0.178613 19.5293 0.496545 19.8472C0.814478 20.1651 1.24569 20.3437 1.69531 20.3437H22.039C22.4887 20.3437 22.9199 20.1651 23.2378 19.8472C23.5557 19.5293 23.7344 19.0981 23.7344 18.6484V1.69531C23.7344 1.24569 23.5557 0.814478 23.2378 0.496545C22.9199 0.178613 22.4887 0 22.039 0Z" fill="#868686"/>
<path d="M3.39062 5.08594H9.32421V6.78125H3.39062V5.08594Z" fill="#868686"/>
<path d="M3.39062 8.47656H6.78125V10.1719H3.39062V8.47656Z" fill="#868686"/>
<path d="M17.8008 11.8672H12.7148C12.0404 11.8672 11.3936 12.1351 10.9167 12.612C10.4398 13.0889 10.1719 13.7357 10.1719 14.4102V16.1055H11.8672V14.4102C11.8672 14.1853 11.9565 13.9697 12.1155 13.8108C12.2744 13.6518 12.49 13.5625 12.7148 13.5625H17.8008C18.0256 13.5625 18.2412 13.6518 18.4002 13.8108C18.5591 13.9697 18.6484 14.1853 18.6484 14.4102V16.1055H20.3437V14.4102C20.3437 13.7357 20.0758 13.0889 19.5989 12.612C19.122 12.1351 18.4752 11.8672 17.8008 11.8672Z" fill="#868686"/>
<path d="M15.2578 11.0195C15.9284 11.0195 16.584 10.8207 17.1415 10.4481C17.6991 10.0755 18.1337 9.546 18.3903 8.92644C18.647 8.30689 18.7141 7.62514 18.5833 6.96743C18.4525 6.30971 18.1295 5.70556 17.6553 5.23137C17.1812 4.75719 16.577 4.43426 15.9193 4.30343C15.2616 4.1726 14.5798 4.23975 13.9603 4.49638C13.3407 4.75301 12.8112 5.18759 12.4386 5.74518C12.066 6.30276 11.8672 6.9583 11.8672 7.62891C11.8672 8.52816 12.2244 9.39057 12.8603 10.0264C13.4961 10.6623 14.3586 11.0195 15.2578 11.0195ZM15.2578 5.93359C15.5931 5.93359 15.9209 6.03302 16.1997 6.21931C16.4785 6.40559 16.6958 6.67036 16.8241 6.98014C16.9524 7.28992 16.986 7.63079 16.9205 7.95965C16.8551 8.2885 16.6937 8.59058 16.4566 8.82767C16.2195 9.06477 15.9174 9.22623 15.5885 9.29164C15.2597 9.35706 14.9188 9.32348 14.609 9.19517C14.2993 9.06686 14.0345 8.84956 13.8482 8.57077C13.6619 8.29198 13.5625 7.96421 13.5625 7.62891C13.5625 7.17928 13.7411 6.74807 14.059 6.43014C14.377 6.11221 14.8082 5.93359 15.2578 5.93359Z" fill="#868686"/>
</svg>
